<?xml version="1.0" encoding="UTF-8" standalone="no"?>
<svg width="24px" height="24px" viewBox="0 0 24 24" version="1.1" xmlns="http://www.w3.org/2000/svg" xmlns:xlink="http://www.w3.org/1999/xlink">
    <g stroke="none" stroke-width="1" fill="none" fill-rule="evenodd">
        <g fill="#000000">
            <polygon points="3 5 3 18.566 5.983 18.566 5.983 12.714 11.474 12.714 11.474 18.566 14.457 18.566 14.457 5 11.474 5 11.474 10.206 5.983 10.206 5.983 5"></polygon>
            <path d="M15.708,10.679 L17.476,10.679 C17.476,10.4363321 17.4998331,10.1915012 17.5475,9.9445 C17.5951669,9.69749876 17.6753328,9.47216768 17.788,9.2685 C17.9006672,9.06483232 18.0501657,8.90016729 18.2365,8.7745 C18.4228343,8.6488327 18.650332,8.586 18.919,8.586 C19.3176687,8.586 19.6448321,8.70949876 19.9005,8.9565 C20.1561679,9.20350123 20.284,9.54799779 20.284,9.99 C20.284,10.2673347 20.2211673,10.5143322 20.0955,10.731 C19.9698327,10.9476677 19.8138343,11.1426658 19.6275,11.316 C19.4411657,11.4893342 19.2353345,11.6474993 19.01,11.7905 C18.7846655,11.9335007 18.5723343,12.0743326 18.373,12.213 C17.982998,12.481668 17.6125018,12.7459987 17.2615,13.006 C16.9104982,13.2660013 16.6050013,13.5498318 16.345,13.8575 C16.0849987,14.1651682 15.8791674,14.5139981 15.7275,14.904 C15.5758326,15.2940019 15.5,15.7533307 15.5,16.282 L22.182,16.282 L22.182,14.696 L17.879,14.696 C18.1043345,14.3839984 18.3643319,14.1110012 18.659,13.877 C18.9536681,13.6429988 19.2569984,13.4241677 19.569,13.2205 C19.8810016,13.0168323 20.1908318,12.811001 20.4985,12.603 C20.8061682,12.394999 21.0813321,12.1631679 21.324,11.9075 C21.5666679,11.6518321 21.7616659,11.359335 21.909,11.03 C22.0563341,10.700665 22.13,10.3063356 22.13,9.847 C22.13,9.40499779 22.0455008,9.00633511 21.8765,8.651 C21.7074992,8.29566489 21.4800014,7.99666788 21.194,7.754 C20.9079986,7.51133212 20.5765019,7.32500065 20.1995,7.195 C19.8224981,7.06499935 19.4260021,7 19.01,7 C18.4639973,7 17.9808354,7.09316573 17.5605,7.2795 C17.1401646,7.46583426 16.7913347,7.72583166 16.514,8.0595 C16.2366653,8.39316833 16.0286674,8.78316443 15.89,9.2295 C15.7513326,9.67583556 15.6906666,10.1589974 15.708,10.679 L15.708,10.679 Z"></path>
        </g>
    </g>
</svg>
