<?xml version="1.0" encoding="UTF-8" standalone="no"?>
<svg width="24px" height="24px" viewBox="0 0 24 24" version="1.1" xmlns="http://www.w3.org/2000/svg" xmlns:xlink="http://www.w3.org/1999/xlink">
    <g stroke="none" stroke-width="1" fill="none" fill-rule="evenodd">
        <g fill="#000000">
            <polygon points="3 5 3 18.566 5.983 18.566 5.983 12.714 11.474 12.714 11.474 18.566 14.457 18.566 14.457 5 11.474 5 11.474 10.206 5.983 10.206 5.983 5"></polygon>
            <path d="M18.7306667,10.861 L18.7306667,12.161 C18.9560011,12.161 19.1921654,12.1674999 19.4391667,12.1805 C19.6861679,12.1935001 19.9136656,12.2411663 20.1216667,12.3235 C20.3296677,12.4058337 20.5008327,12.5379991 20.6351667,12.72 C20.7695007,12.9020009 20.8366667,13.1663316 20.8366667,13.513 C20.8366667,13.9550022 20.6936681,14.3038321 20.4076667,14.5595 C20.1216652,14.8151679 19.7706688,14.943 19.3546667,14.943 C19.0859987,14.943 18.8541677,14.8953338 18.6591667,14.8 C18.4641657,14.7046662 18.3016673,14.5768341 18.1716667,14.4165 C18.041666,14.2561659 17.9420004,14.0655011 17.8726667,13.8445 C17.803333,13.6234989 17.7643334,13.3916679 17.7556667,13.149 L16.0006667,13.149 C15.992,13.6776693 16.0678325,14.1456646 16.2281667,14.553 C16.3885008,14.9603354 16.6159985,15.3048319 16.9106667,15.5865 C17.2053348,15.8681681 17.5628312,16.0826659 17.9831667,16.23 C18.4035021,16.3773341 18.8693308,16.451 19.3806667,16.451 C19.8226689,16.451 20.2473313,16.3860006 20.6546667,16.256 C21.062002,16.1259994 21.4216651,15.9353346 21.7336667,15.684 C22.0456682,15.4326654 22.2948324,15.1206685 22.4811667,14.748 C22.6675009,14.3753315 22.7606667,13.9506691 22.7606667,13.474 C22.7606667,12.9539974 22.6176681,12.5076685 22.3316667,12.135 C22.0456652,11.7623315 21.6513359,11.5196672 21.1486667,11.407 L21.1486667,11.381 C21.5733355,11.2596661 21.8918323,11.0300017 22.1041667,10.692 C22.3165011,10.3539983 22.4226667,9.96400221 22.4226667,9.522 C22.4226667,9.11466463 22.3316676,8.75500156 22.1496667,8.443 C21.9676658,8.13099844 21.7315015,7.86666775 21.4411667,7.65 C21.1508319,7.43333225 20.8236685,7.27083387 20.4596667,7.1625 C20.0956649,7.05416612 19.7316685,7 19.3676667,7 C18.8996643,7 18.4750019,7.07583257 18.0936667,7.2275 C17.7123314,7.37916742 17.385168,7.59366528 17.1121667,7.871 C16.8391653,8.14833472 16.6268341,8.4798314 16.4751667,8.8655 C16.3234993,9.25116859 16.2390001,9.67799766 16.2216667,10.146 L17.9766667,10.146 C17.968,9.67799766 18.0828322,9.2901682 18.3211667,8.9825 C18.5595012,8.67483179 18.9126643,8.521 19.3806667,8.521 C19.7186684,8.521 20.0176654,8.62499896 20.2776667,8.833 C20.537668,9.04100104 20.6676667,9.33999805 20.6676667,9.73 C20.6676667,9.9900013 20.604834,10.1979992 20.4791667,10.354 C20.3534994,10.5100008 20.1931677,10.6291663 19.9981667,10.7115 C19.8031657,10.7938337 19.5930011,10.8436666 19.3676667,10.861 C19.1423322,10.8783334 18.930001,10.8783334 18.7306667,10.861 L18.7306667,10.861 Z"></path>
        </g>
    </g>
</svg>
